<svg width="224" height="20" viewBox="0 0 224 20" fill="none" xmlns="http://www.w3.org/2000/svg">
<path d="M0.721591 19H3.88352V13.1023H7.22443C11.2557 13.1023 13.4205 10.6818 13.4205 7.32386C13.4205 3.99148 11.2812 1.54545 7.26705 1.54545H0.721591V19ZM3.88352 10.5028V4.1875H6.78125C9.15057 4.1875 10.1989 5.46591 10.1989 7.32386C10.1989 9.18182 9.15057 10.5028 6.7983 10.5028H3.88352ZM20.5533 19.2557C24.3885 19.2557 26.826 16.554 26.826 12.5057C26.826 8.44886 24.3885 5.73864 20.5533 5.73864C16.718 5.73864 14.2805 8.44886 14.2805 12.5057C14.2805 16.554 16.718 19.2557 20.5533 19.2557ZM20.5703 16.7841C18.4482 16.7841 17.4084 14.892 17.4084 12.4972C17.4084 10.1023 18.4482 8.18466 20.5703 8.18466C22.6584 8.18466 23.6982 10.1023 23.6982 12.4972C23.6982 14.892 22.6584 16.7841 20.5703 16.7841ZM33.3026 19.2301C35.5526 19.2301 36.5668 17.892 37.0526 16.9375H37.2401V19H40.2741V1.54545H37.1804V8.07386H37.0526C36.5838 7.12784 35.6207 5.73864 33.3111 5.73864C30.2855 5.73864 27.9077 8.10795 27.9077 12.4716C27.9077 16.7841 30.2173 19.2301 33.3026 19.2301ZM34.1634 16.6989C32.1264 16.6989 31.0526 14.9091 31.0526 12.4545C31.0526 10.017 32.1094 8.26989 34.1634 8.26989C36.1491 8.26989 37.2401 9.91477 37.2401 12.4545C37.2401 14.9943 36.1321 16.6989 34.1634 16.6989ZM48.272 19.2557C51.5618 19.2557 53.6584 17.304 53.88 14.5256H50.9311C50.6669 15.9318 49.6527 16.7415 48.2976 16.7415C46.3714 16.7415 45.1271 15.1307 45.1271 12.4545C45.1271 9.8125 46.397 8.22727 48.2976 8.22727C49.7805 8.22727 50.6925 9.18182 50.9311 10.4432H53.88C53.6669 7.60511 51.451 5.73864 48.255 5.73864C44.4197 5.73864 41.9993 8.50852 41.9993 12.5057C41.9993 16.4688 44.3601 19.2557 48.272 19.2557ZM59.1804 19.2642C61.2344 19.2642 62.4616 18.3011 63.0241 17.2017H63.1264V19H66.0923V10.2386C66.0923 6.77841 63.2713 5.73864 60.7741 5.73864C58.0213 5.73864 55.9077 6.96591 55.2259 9.35227L58.1065 9.76136C58.4134 8.86648 59.2827 8.09943 60.7912 8.09943C62.223 8.09943 63.0071 8.83239 63.0071 10.1193V10.1705C63.0071 11.0568 62.0781 11.0994 59.7685 11.3466C57.2287 11.6193 54.7997 12.3778 54.7997 15.3267C54.7997 17.9006 56.6832 19.2642 59.1804 19.2642ZM59.9815 16.9972C58.6946 16.9972 57.7741 16.4091 57.7741 15.2756C57.7741 14.0909 58.8054 13.5966 60.1861 13.4006C60.9957 13.2898 62.6151 13.0852 63.0156 12.7614V14.304C63.0156 15.7614 61.8395 16.9972 59.9815 16.9972ZM78.5412 9.36932C78.1151 7.15341 76.3423 5.73864 73.2741 5.73864C70.1207 5.73864 67.973 7.28977 67.9815 9.71023C67.973 11.6193 69.1491 12.8807 71.6634 13.4006L73.8963 13.8693C75.098 14.1335 75.6605 14.6193 75.6605 15.3608C75.6605 16.2557 74.6889 16.929 73.223 16.929C71.8082 16.929 70.8878 16.3153 70.6236 15.1392L67.6151 15.429C67.9986 17.8324 70.0185 19.2557 73.2315 19.2557C76.5043 19.2557 78.8139 17.5597 78.8224 15.0795C78.8139 13.2131 77.6122 12.071 75.1406 11.5341L72.9077 11.0568C71.5781 10.7585 71.0497 10.2983 71.0582 9.53977C71.0497 8.65341 72.0298 8.03977 73.3168 8.03977C74.7401 8.03977 75.4901 8.81534 75.7287 9.67614L78.5412 9.36932ZM86.9034 5.90909H84.321V2.77273H81.2358V5.90909H79.3778V8.29545H81.2358V15.5739C81.2188 18.0369 83.0085 19.2472 85.3267 19.179C86.2045 19.1534 86.8097 18.983 87.142 18.8722L86.6222 16.4602C86.4517 16.5028 86.1023 16.5795 85.7188 16.5795C84.9432 16.5795 84.321 16.3068 84.321 15.0625V8.29545H86.9034V5.90909ZM95.8146 19L97.255 14.696H103.817L105.266 19H108.641L102.488 1.54545H98.5845L92.4396 19H95.8146ZM98.1072 12.1562L100.468 5.125H100.604L102.965 12.1562H98.1072ZM119.857 5.90909H116.575L113.558 15.6335H113.422L110.413 5.90909H107.124L111.786 19H115.195L119.857 5.90909ZM124.384 19.2642C126.438 19.2642 127.665 18.3011 128.227 17.2017H128.33V19H131.295V10.2386C131.295 6.77841 128.474 5.73864 125.977 5.73864C123.224 5.73864 121.111 6.96591 120.429 9.35227L123.31 9.76136C123.616 8.86648 124.486 8.09943 125.994 8.09943C127.426 8.09943 128.21 8.83239 128.21 10.1193V10.1705C128.21 11.0568 127.281 11.0994 124.972 11.3466C122.432 11.6193 120.003 12.3778 120.003 15.3267C120.003 17.9006 121.886 19.2642 124.384 19.2642ZM125.185 16.9972C123.898 16.9972 122.977 16.4091 122.977 15.2756C122.977 14.0909 124.009 13.5966 125.389 13.4006C126.199 13.2898 127.818 13.0852 128.219 12.7614V14.304C128.219 15.7614 127.043 16.9972 125.185 16.9972ZM133.398 19H136.483V5.90909H133.398V19ZM134.949 4.05114C135.929 4.05114 136.73 3.30114 136.73 2.38068C136.73 1.4517 135.929 0.701704 134.949 0.701704C133.96 0.701704 133.159 1.4517 133.159 2.38068C133.159 3.30114 133.96 4.05114 134.949 4.05114ZM141.741 1.54545H138.656V19H141.741V1.54545ZM147.68 19.2642C149.734 19.2642 150.962 18.3011 151.524 17.2017H151.626V19H154.592V10.2386C154.592 6.77841 151.771 5.73864 149.274 5.73864C146.521 5.73864 144.408 6.96591 143.726 9.35227L146.607 9.76136C146.913 8.86648 147.783 8.09943 149.291 8.09943C150.723 8.09943 151.507 8.83239 151.507 10.1193V10.1705C151.507 11.0568 150.578 11.0994 148.268 11.3466C145.729 11.6193 143.3 12.3778 143.3 15.3267C143.3 17.9006 145.183 19.2642 147.68 19.2642ZM148.482 16.9972C147.195 16.9972 146.274 16.4091 146.274 15.2756C146.274 14.0909 147.305 13.5966 148.686 13.4006C149.496 13.2898 151.115 13.0852 151.516 12.7614V14.304C151.516 15.7614 150.339 16.9972 148.482 16.9972ZM156.831 19H159.865V16.9375H160.044C160.53 17.892 161.544 19.2301 163.794 19.2301C166.879 19.2301 169.189 16.7841 169.189 12.4716C169.189 8.10795 166.811 5.73864 163.786 5.73864C161.476 5.73864 160.513 7.12784 160.044 8.07386H159.916V1.54545H156.831V19ZM159.857 12.4545C159.857 9.91477 160.947 8.26989 162.933 8.26989C164.987 8.26989 166.044 10.017 166.044 12.4545C166.044 14.9091 164.97 16.6989 162.933 16.6989C160.964 16.6989 159.857 14.9943 159.857 12.4545ZM173.897 1.54545H170.812V19H173.897V1.54545ZM181.865 19.2557C184.916 19.2557 187.013 17.7642 187.558 15.4886L184.678 15.1648C184.26 16.2727 183.237 16.8523 181.908 16.8523C179.913 16.8523 178.592 15.5398 178.567 13.2983H187.686V12.3523C187.686 7.75852 184.925 5.73864 181.703 5.73864C177.953 5.73864 175.507 8.49148 175.507 12.5312C175.507 16.6392 177.919 19.2557 181.865 19.2557ZM178.575 11.2188C178.669 9.5483 179.905 8.14205 181.746 8.14205C183.518 8.14205 184.712 9.4375 184.729 11.2188H178.575ZM209.982 10.2727C209.982 4.63068 206.539 1.30682 201.962 1.30682C197.377 1.30682 193.942 4.63068 193.942 10.2727C193.942 15.9062 197.377 19.2386 201.962 19.2386C206.539 19.2386 209.982 15.9148 209.982 10.2727ZM206.803 10.2727C206.803 14.2443 204.809 16.4006 201.962 16.4006C199.124 16.4006 197.121 14.2443 197.121 10.2727C197.121 6.30114 199.124 4.14489 201.962 4.14489C204.809 4.14489 206.803 6.30114 206.803 10.2727ZM214.92 11.3295C214.92 9.4375 216.062 8.34659 217.69 8.34659C219.284 8.34659 220.239 9.39489 220.239 11.142V19H223.324V10.6648C223.332 7.52841 221.543 5.73864 218.841 5.73864C216.881 5.73864 215.534 6.67614 214.938 8.13352H214.784V5.90909H211.835V19H214.92V11.3295Z" fill="#14142B"/>
</svg>
